<?xml version="1.0" encoding="utf-8"?>
<!-- Generator: Adobe Illustrator 27.5.0, SVG Export Plug-In . SVG Version: 6.00 Build 0)  -->
<svg version="1.1" xmlns="http://www.w3.org/2000/svg" xmlns:xlink="http://www.w3.org/1999/xlink" x="0px" y="0px"
	 viewBox="0 0 500 500" style="enable-background:new 0 0 500 500;" xml:space="preserve">
<g id="BACKGROUND">
	<rect style="fill:#FFFFFF;" width="500" height="500"/>
</g>
<g id="OBJECTS">
	<g>
		<g>
			<g>
				<g>
					<path style="fill:#AABBE3;" d="M88.002,50.496c-0.303,6.966-0.403,30.742-0.707,44.069
						c-0.302,13.327,1.111,35.893,1.312,45.182c0.202,9.288-0.051,26.754,0.353,27.36c0.404,0.605,23.272,0.506,40.032,0.707
						c16.759,0.202,42.201-0.657,46.441-0.859c4.24-0.202,5.402-0.201,4.998-6.057c-0.405-5.856-1.464-105.967-1.667-109.19
						c-0.151-2.423-1.513-2.019-4.139-2.019c-2.626,0-78.346,0-81.779,0.201C89.414,50.091,88.203,49.991,88.002,50.496z"/>
					<path style="fill:#F2F2F2;" d="M96.685,161.048c5.906,0.152,72.995-0.757,75.267-0.757c2.271,0,2.271,0,2.422-1.211
						c0.152-1.212-1.968-69.058-1.968-72.693c0-3.635-0.909-28.472-1.06-29.228c-0.151-0.758,0-1.211-2.878-1.06
						c-2.877,0.15-70.268,0.15-71.632,0.302c-1.363,0.152-2.271,0.152-2.271,0.909c0,0.758-0.151,49.674,0,55.276
						c0.151,5.604,1.515,45.282,1.515,46.796C96.079,160.898,96.079,160.745,96.685,161.048z"/>
					<path style="fill:#D7DFF2;" d="M94.059,59.885c50.279,0.606,79.81-0.757,79.81-0.757s-2.12,4.544-2.726,4.544
						c-0.605,0-76.781,0.555-77.992,0.555C91.94,64.227,93.331,59.877,94.059,59.885z"/>
					<path style="fill:#D7DFF2;" d="M94.565,69.78c50.279,0.605,79.455-1.263,79.455-1.263s-2.119,4.544-2.726,4.544
						c-0.605,0-76.729-0.555-77.942-0.555C92.142,72.505,93.837,69.771,94.565,69.78z"/>
					<path style="fill:#D7DFF2;" d="M94.362,78.664c50.278,0.607,79.81-0.757,79.81-0.757s-2.121,4.543-2.727,4.543
						c-0.605,0-76.781,0.556-77.992,0.556C92.243,83.006,93.634,78.656,94.362,78.664z"/>
					<path style="fill:#D7DFF2;" d="M94.262,88.458c50.279,0.606,80.062-1.162,80.062-1.162s-2.12,4.543-2.725,4.543
						c-0.607,0-77.235,0.152-78.447,0.152C92.849,91.79,93.533,88.449,94.262,88.458z"/>
					<path style="fill:#D7DFF2;" d="M94.665,97.443c50.279,0.606,79.76-0.201,79.76-0.201s-0.91,3.029-1.515,3.029
						c-0.605,0-77.942,1.514-79.154,1.514C92.545,101.784,93.936,97.434,94.665,97.443z"/>
					<path style="fill:#D7DFF2;" d="M94.816,106.832c50.279,0.605,79.81-0.757,79.81-0.757s-2.12,4.543-2.725,4.543
						c-0.607,0-76.781,0.556-77.993,0.556S94.088,106.823,94.816,106.832z"/>
					<path style="fill:#D7DFF2;" d="M94.968,116.222c50.278,0.606,79.054,0.303,79.054,0.303s-1.364,3.483-1.971,3.483
						c-0.605,0-76.78,0.555-77.991,0.555C92.848,120.563,94.239,116.213,94.968,116.222z"/>
					<path style="fill:#D7DFF2;" d="M95.372,125.611c50.279,0.606,78.75-0.807,78.75-0.807s-2.019,4.644-2.625,4.644
						c-0.606,0-76.731,0.505-77.943,0.505C92.949,129.751,94.644,125.603,95.372,125.611z"/>
					<path style="fill:#D7DFF2;" d="M95.27,135.001c50.279,0.606,79.81-0.757,79.81-0.757s-2.12,4.543-2.726,4.543
						c-0.605,0-76.781,0.556-77.992,0.556C93.152,139.342,94.542,134.992,95.27,135.001z"/>
					<path style="fill:#D7DFF2;" d="M95.422,144.39c50.278,0.606,79.507-0.302,79.507-0.302s-1.111,3.634-1.716,3.634
						c-0.606,0-80.068,1.603-79.558,0.505C94.313,146.813,94.693,144.381,95.422,144.39z"/>
					<path style="fill:#D7DFF2;" d="M96.18,153.678c50.279,0.606,79.204-0.656,79.204-0.656s-1.059,4.594-1.666,4.594
						c-0.606,0-77.841,0.505-79.053,0.505C93.454,158.121,95.452,153.67,96.18,153.678z"/>
				</g>
				<g>
					<path style="fill:#AABBE3;" d="M63.106,324.194l91.964,0.441V163.917c-6.299,0-46.419,0.468-47.586,0.934
						c-1.166,0.466,0,49.218,0,49.218c-11.429,0.466-43.938,1.15-44.171,1.85C63.079,216.619,62.872,321.862,63.106,324.194z"/>
					<g>
						<g>
							<path style="fill:#1E194A;" d="M106.984,214.069c0.057,1.449,0.073,2.901,0.1,4.351c0.056,2.959,0.106,5.918,0.154,8.877
								c0.067,4.088,0.131,8.177,0.194,12.265c0.074,4.838,0.147,9.677,0.218,14.515c0.077,5.209,0.153,10.417,0.228,15.626
								c0.075,5.199,0.149,10.399,0.223,15.598c0.068,4.81,0.136,9.621,0.204,14.431c0.057,4.042,0.113,8.084,0.169,12.126
								c0.04,2.894,0.08,5.788,0.12,8.683c0.019,1.365,0.009,2.735,0.057,4.1c0.002,0.059,0.002,0.117,0.002,0.176
								c0.009,0.643,1.009,0.645,1,0c-0.013-0.937-0.026-1.873-0.039-2.81c-0.035-2.557-0.071-5.113-0.106-7.67
								c-0.053-3.797-0.106-7.594-0.159-11.391c-0.065-4.658-0.131-9.316-0.197-13.974c-0.073-5.139-0.146-10.279-0.22-15.418
								c-0.075-5.241-0.151-10.483-0.228-15.724c-0.073-4.964-0.147-9.927-0.222-14.891c-0.065-4.306-0.132-8.613-0.201-12.919
								c-0.052-3.27-0.106-6.539-0.165-9.809c-0.034-1.853-0.063-3.707-0.115-5.56c-0.005-0.194-0.011-0.388-0.019-0.582
								C107.959,213.427,106.959,213.424,106.984,214.069L106.984,214.069z"/>
						</g>
					</g>
					<g>
						<g>
							<path style="fill:#1E194A;" d="M63.521,269.727c0.814-0.009,1.627-0.018,2.441-0.028c2.215-0.025,4.429-0.051,6.644-0.076
								c3.275-0.037,6.551-0.075,9.826-0.112c3.996-0.046,7.993-0.091,11.989-0.137c4.378-0.05,8.755-0.1,13.133-0.15
								c4.419-0.05,8.838-0.101,13.257-0.151c4.12-0.047,8.241-0.094,12.361-0.141c3.482-0.04,6.964-0.079,10.446-0.119
								c2.504-0.029,5.007-0.057,7.511-0.086c1.184-0.014,2.373,0.004,3.556-0.04c0.05-0.002,0.101-0.001,0.152-0.002
								c0.643-0.007,0.645-1.007,0-1c-0.814,0.009-1.627,0.018-2.441,0.028c-2.215,0.025-4.429,0.051-6.644,0.076
								c-3.275,0.037-6.551,0.075-9.826,0.112c-3.997,0.046-7.993,0.091-11.99,0.137c-4.378,0.05-8.755,0.1-13.133,0.15
								c-4.419,0.05-8.838,0.101-13.257,0.151c-4.12,0.047-8.241,0.094-12.361,0.141c-3.482,0.04-6.964,0.079-10.446,0.119
								c-2.504,0.029-5.007,0.057-7.511,0.086c-1.184,0.013-2.373-0.004-3.556,0.041c-0.05,0.002-0.101,0.001-0.152,0.002
								C62.877,268.734,62.876,269.734,63.521,269.727L63.521,269.727z"/>
						</g>
					</g>
					<g>
						<g>
							<path style="fill:#1E194A;" d="M109.817,214.569c1.427-0.031,2.855-0.062,4.282-0.093c3.429-0.074,6.858-0.148,10.287-0.222
								c4.151-0.09,8.302-0.18,12.453-0.269c3.608-0.078,7.216-0.156,10.824-0.234c1.73-0.037,3.509,0.043,5.233-0.113
								c0.024-0.002,0.05-0.001,0.074-0.002c0.643-0.014,0.645-1.014,0-1c-1.427,0.031-2.855,0.062-4.282,0.093
								c-3.429,0.074-6.858,0.148-10.287,0.222c-4.151,0.09-8.302,0.179-12.453,0.269c-3.608,0.078-7.216,0.156-10.824,0.234
								c-1.73,0.037-3.509-0.043-5.233,0.113c-0.024,0.002-0.05,0.001-0.074,0.002C109.174,213.583,109.172,214.583,109.817,214.569
								L109.817,214.569z"/>
						</g>
					</g>
					<g>
						<path style="fill:#1E194A;" d="M127.015,173.387c-2.516,0-3.421,0.402-3.321,1.71c0.1,1.308,1.107,1.509,3.723,1.509
							c2.617,0,5.737-0.1,7.245-0.1c1.51,0,2.315-0.805,2.214-1.61c-0.101-0.805-0.303-1.409-2.415-1.409
							C132.347,173.487,129.33,173.387,127.015,173.387z"/>
					</g>
					<g>
						<path style="fill:#1E194A;" d="M127.19,229.894c-2.516,0-3.421,0.402-3.321,1.711c0.1,1.308,1.107,1.509,3.723,1.509
							c2.617,0,5.735-0.1,7.245-0.1c1.509,0,2.315-0.806,2.214-1.611c-0.101-0.804-0.302-1.408-2.415-1.408
							C132.523,229.995,129.505,229.894,127.19,229.894z"/>
					</g>
					<g>
						<path style="fill:#1E194A;" d="M80.304,229.894c-2.516,0-3.42,0.402-3.321,1.711c0.101,1.308,1.106,1.509,3.724,1.509
							c2.616,0,5.735-0.1,7.244-0.1s2.315-0.806,2.214-1.611c-0.101-0.804-0.301-1.408-2.415-1.408
							C85.637,229.995,82.62,229.894,80.304,229.894z"/>
					</g>
					<g>
						<path style="fill:#1E194A;" d="M82.928,280.454c-2.515,0-3.42,0.401-3.32,1.71c0.1,1.308,1.107,1.509,3.723,1.509
							c2.617,0,5.735-0.099,7.245-0.099s2.315-0.806,2.214-1.611c-0.101-0.804-0.302-1.409-2.415-1.409
							C88.261,280.554,85.243,280.454,82.928,280.454z"/>
					</g>
					<g>
						<path style="fill:#1E194A;" d="M127.015,279.754c-2.516,0-3.421,0.402-3.321,1.711c0.1,1.308,1.107,1.509,3.723,1.509
							c2.617,0,5.737-0.1,7.245-0.1c1.51,0,2.315-0.805,2.214-1.61c-0.101-0.804-0.303-1.409-2.415-1.409
							C132.347,279.854,129.33,279.754,127.015,279.754z"/>
					</g>
					<path style="fill:#8CBCC2;" d="M82.351,193.794c-4.454-1.133-6.57-3.548-8.684-6.945c-2.113-3.398-2.059-6.031-0.473-6.108
						c1.587-0.077,2.964,2.029,5.379,6.107c2.418,4.08,3.852,5.512,3.852,5.512c-1.813-4.682-2.944-8.908-3.172-17.667
						c-0.226-8.757,1.824-9.301,2.568-9.286c1.345,0.028,3.029,8.254,3.182,13.237c0.151,4.982-0.239,13.039-0.239,13.039
						c1.964-3.7,1.658-10.604,4-15.663c2.34-5.057,5.404-5.785,6.497-4.646c1.736,1.811-4.079,13.589-8.759,20.686
						c5.134-3.322,10.571-12.005,12.079-11.326c1.509,0.679,0.68,7.702-10.418,13.364C81.975,194.926,82.351,193.794,82.351,193.794
						z"/>
					<g>
						<path style="fill:#1E194A;" d="M72.308,194.322c-0.34,5.21,0.722,19.118,8.234,20.212c2.885,0.407,6.472,0.612,9.971-0.205
							c4.19-1.812,6.786-6.869,6.558-19.78c0-0.907-0.263-1.889-1.734-1.889c-1.473,0-19.82,0-20.838,0
							C73.479,192.661,72.308,193.34,72.308,194.322z"/>
					</g>
				</g>
			</g>
			<g>
				<path style="fill:#E9F0FF;" d="M58.952,328.006c-12.944,24.016,20.864,24.848,41.843,49.602
					c20.979,24.754-40.893,32.339,0,60.307c40.893,27.969,212.899,23.702,285.709-12.325s66.071-79.982,8.215-91.395
					C336.862,322.782,71.896,303.99,58.952,328.006z"/>
				<path style="fill:#D6E4FC;" d="M117.87,336.396c0,0-23.429,6.193-18,11.976c5.429,5.783,26.899,12.069,37.735,15.211
					c10.836,3.143-5.43,10.444-5.297,17.651c0.133,7.207,12.884,19.492,43.794,32.635c30.91,13.143,82.993-3.143,99.38-4
					c16.387-0.857,32.387,12.857,48.673,15.714c16.286,2.857,46.121-10.227,52.808-14.095c6.687-3.868,18.049-23.466-17.094-39.828
					c-35.143-16.363-64-33.618-124.571-33.848C174.728,337.583,117.87,336.396,117.87,336.396z"/>
			</g>
			<g>
				<path style="fill:#E9F0FF;" d="M347.025,115.805c0,0-1.456,118.79,1.165,121.544s72.287,21.451,75.054,18.939
					c2.767-2.512,4.01-125.282,2.767-128.843C424.767,123.884,357.455,115.42,347.025,115.805z"/>
				<path style="fill:#FFFFFF;" d="M385.676,148.73c0,0-8.055-8.916-16.513-6.005c-8.457,2.911-5.943,13.557-1.536,25.076
					c4.407,11.519,0.207,16.316,1.513,28.088c1.306,11.773,8.677,18.69,9.364,15.87c0.688-2.82-1.996-23.721,3.74-24.214
					c5.736-0.493,1.493,27.467,5.546,27.805c4.052,0.338,7.779-9.594,9.359-18.572c1.581-8.979-1.649-12.762,2.414-21.907
					c3.448-7.763,6.333-20.876,3.074-25.591C399.379,144.564,390.207,144.544,385.676,148.73z"/>
				<path style="fill:#AABBE3;" d="M354.051,232.947c0.236,1.7-0.607,3.221-1.882,3.398c-1.275,0.177-2.5-1.058-2.735-2.758
					c-0.236-1.7,0.607-3.221,1.882-3.398C352.591,230.012,353.816,231.247,354.051,232.947z"/>
				<path style="fill:#AABBE3;" d="M420.007,250.123c0.236,1.7-0.607,3.221-1.882,3.398c-1.275,0.177-2.5-1.058-2.735-2.758
					c-0.236-1.7,0.607-3.221,1.882-3.398C418.546,247.188,419.771,248.423,420.007,250.123z"/>
				<path style="fill:#AABBE3;" d="M354.051,121.079c0.236,1.7-0.607,3.221-1.882,3.398c-1.275,0.177-2.5-1.058-2.735-2.758
					c-0.236-1.7,0.607-3.221,1.882-3.398C352.591,118.144,353.816,119.379,354.051,121.079z"/>
				<path style="fill:#AABBE3;" d="M423.736,131.1c0.236,1.7-0.607,3.221-1.882,3.398c-1.275,0.177-2.499-1.058-2.735-2.758
					c-0.236-1.7,0.607-3.221,1.882-3.398S423.5,129.4,423.736,131.1z"/>
				
					<line style="fill:none;stroke:#FFFFFF;stroke-linecap:round;stroke-linejoin:round;stroke-miterlimit:10;" x1="358.734" y1="216.692" x2="411.872" y2="228.683"/>
				
					<line style="fill:none;stroke:#FFFFFF;stroke-linecap:round;stroke-linejoin:round;stroke-miterlimit:10;" x1="363.564" y1="223.323" x2="404.88" y2="232.645"/>
				
					<line style="fill:none;stroke:#FFFFFF;stroke-linecap:round;stroke-linejoin:round;stroke-miterlimit:10;" x1="363.046" y1="227.984" x2="377.029" y2="231.48"/>
				
					<line style="fill:none;stroke:#FFFFFF;stroke-linecap:round;stroke-linejoin:round;stroke-miterlimit:10;" x1="382.04" y1="233.266" x2="401.734" y2="237.889"/>
			</g>
			<g>
				<path style="fill:#1E194A;" d="M407.835,333.155c0,0,0.964,19.607,2.678,23.25c1.714,3.643,14.572,4.607,17.786,1.821
					c3.214-2.786,4.821-24.75,4.393-25.071C432.263,332.833,412.549,328.869,407.835,333.155z"/>
				<path style="fill:#8CBCC2;" d="M404.156,286.135c5.429-3.409,10.286,26.329,10.286,26.329s-0.286-32.881,5.714-34.023
					c6-1.143,2.857,35.041,2.857,35.041s12.34-24.47,16.599-21.613c4.258,2.857-9.17,26.786-9.17,26.786s10-11.896,13.143-9.341
					c3.143,2.555-16.857,27.126-16.857,27.126s-6.631,2.596-15.03-1.273C411.698,335.167,398.728,289.544,404.156,286.135z"/>
			</g>
			<g>
				<path style="fill:#AABBE3;" d="M345.579,58.093V82.21c0,0.78,0.488,1.435,1.147,1.526c10.166,1.409,84.535,11.668,86.483,10.635
					c2.091-1.109,1.255-28.636,0-29.861c-1.123-1.096-71.814-8.041-86.398-9.463C345.365,54.906,345.579,56.389,345.579,58.093z"/>
				<path style="fill:#D7DFF2;" d="M349.941,60.599c0,0,78.006,7.202,79.145,7.497c1.139,0.295,0.809,5.848-0.045,5.489
					c-0.853-0.359-79.131-9.275-79.131-9.275S348.844,60.497,349.941,60.599z"/>
				<path style="fill:#D7DFF2;" d="M350.161,68.592c0,0,77.572,7.912,78.568,8.348c0.995,0.436,0.536,4.286-0.037,4.566
					c-0.573,0.281-78.557-9.633-78.557-9.633L350.161,68.592z"/>
				<path style="fill:#D7DFF2;" d="M350.111,74.732c0,0,75.571,8.32,77.132,9.332c1.562,1.012,0.535,4.428-0.036,4.424
					c-0.571-0.005-76.705-9.189-77.129-9.764C349.654,78.15,350.111,74.732,350.111,74.732z"/>
			</g>
		</g>
		
			<line style="fill:none;stroke:#AABBE3;stroke-linecap:round;stroke-linejoin:round;stroke-miterlimit:10;" x1="237.228" y1="59.012" x2="237.228" y2="189.264"/>
	</g>
	<g>
		<g>
			<g>
				<path style="fill:#FFB383;" d="M216.208,207.244l-3.538,10.882c0,0,9.734,1.31,12.26,0.936l1.217-9.363L216.208,207.244z"/>
				<path style="fill:#272532;" d="M158.09,94.741c-17.656-1.706-27.878,13.699-27.878,21.207c0,7.508-8.363,8.873-6.505,15.357
					c1.858,6.484-9.602,10.238-7.124,17.405c2.478,7.167-12.39,9.897-5.885,18.429c6.505,8.532,71.242,27.643,76.508,2.389
					c5.266-25.254-4.336-22.865,0.62-34.127c4.956-11.262,3.407-34.468-14.248-38.564"/>
				<path style="fill:#2A4E7A;" d="M116.108,330.253c0,0-5.1,4.855-6.041,11.611c15.243,9.864,27.36,8.596,27.36,8.596l1.159-4.202
					c0.32-1.02,0.001-1.989-0.869-2.635c-2.696-2.002-11.234-6.525-11.422-10.9L116.108,330.253z"/>
				<path style="fill:#FFB383;" d="M123.633,271.602c0,0-6.648,11.19-6.929,26.225c-0.292,15.655-0.597,32.426-0.597,32.426
					l10.187,2.47l25.42-73.545c-5.388-12.216-10.034-18.223-13.937-18.024C132.708,241.413,127.632,251.695,123.633,271.602z"/>
				
					<path style="fill:none;stroke:#272532;stroke-width:0.7087;stroke-linecap:round;stroke-linejoin:round;stroke-miterlimit:10;" d="
					M110.935,339.721c0,0,8.997,8.505,26.67,8.651"/>
				
					<path style="fill:none;stroke:#272532;stroke-width:0.7087;stroke-linecap:round;stroke-linejoin:round;stroke-miterlimit:10;" d="
					M131.908,339.852c0,0-6.756-1.533-9.03,6.074"/>
				
					<path style="fill:none;stroke:#272532;stroke-width:0.7087;stroke-linecap:round;stroke-linejoin:round;stroke-miterlimit:10;" d="
					M126.12,340.949c0,0-5.631-5.258-4.48-9.106"/>
				
					<path style="fill:none;stroke:#272532;stroke-width:0.7087;stroke-linecap:round;stroke-linejoin:round;stroke-miterlimit:10;" d="
					M113.918,341.98c2.172-2.373,0.406-5.923-1.5-6.396"/>
				<path style="fill:#2A4E7A;" d="M163.446,334.154c0,0-3.495,6.113-2.462,12.855c17.43,5.085,28.676,0.399,28.676,0.399
					l-0.093-4.358c0.014-1.069-0.568-1.906-1.587-2.276c-3.157-1.145-12.632-3.033-14.066-7.172L163.446,334.154z"/>
				<path style="fill:#AC290E;" d="M155.005,275.636c0,0-3.165,16.637,0.874,31.122c4.205,15.083,7.568,27.395,7.568,27.395
					l10.468-0.551l4.437-77.913c-8.661-10.16-14.833-14.586-18.516-13.277C155.051,244.113,153.134,255.419,155.005,275.636z"/>
				
					<path style="fill:none;stroke:#272532;stroke-width:0.7087;stroke-linecap:round;stroke-linejoin:round;stroke-miterlimit:10;" d="
					M161.203,344.707c0,0,11.056,5.572,28.031,0.648"/>
				<path style="fill:#474D4D;" d="M122.007,250.502c0,0,0.069-21.643,11.914-37.438c12.074-2.905,33.031-6.808,37.587,0.272
					c0,0,11.922,9.994,9.005,40.397l0.41,58.973c0,0-24.943,10.047-64.599,0C110.434,291.743,122.007,250.502,122.007,250.502z"/>
				<path style="fill:#4DA4E4;" d="M183.687,173.698c-0.114-0.843-0.244-1.694-0.386-2.554c-0.762-4.619-0.828-9.884-4.747-13.116
					c-2.326-1.918-4.395-2.696-5.5-2.839c-5.759-0.743-12.233-1.252-19.305-1.286c-5.017-0.025-9.741,0.192-14.132,0.567
					c-2.743,0.234-5.322,0.904-7.646,1.925c-8.959,3.936-12.739,13.141-9.165,21.182c1.146,2.579,2.877,8.011,4.583,14.131
					c2.149,7.711,4.256,16.514,5.096,22.089c4.58,1.404,11.793,3.087,20.783,3.044c7.943-0.038,14.41-1.409,18.765-2.648
					c-0.438,0.125,1.101-6.757,1.2-7.031c1.752-4.831,5.185-8.507,7.379-13.09C183.712,187.596,184.641,180.763,183.687,173.698z"/>
				<path style="fill:#FFB383;" d="M165.817,155.379c-2.318,1.009-5.707,1.061-9.799,1.016c-3.851-0.042-7.033-1.597-9.276-2.574
					c0-5.022-1.738-13.673-1.738-18.695l20.814,5.187V155.379z"/>
				<path style="fill:#FFB383;" d="M187.965,125.668c0.919,15.153-2.532,27.086-19.847,27.291
					c-17.315,0.205-24.012-11.607-24.931-26.761c-0.919-15.153,0.422-27.462,17.737-27.667
					C178.24,98.326,187.046,110.515,187.965,125.668z"/>
				<path style="fill:#FFFFFF;" d="M169.379,128.434c0.105,3.223-2.062,5.923-4.857,6.018c-0.384,0.018-0.751-0.026-1.118-0.105
					l-0.009-0.009c-2.263-0.507-4.027-2.769-4.123-5.547c-0.105-3.232,2.062-5.922,4.857-6.027c1.24-0.044,2.402,0.437,3.311,1.275
					C168.566,125.071,169.318,126.643,169.379,128.434z"/>
				<path style="fill:#272532;" d="M169.379,128.434c0.105,3.223-2.062,5.923-4.857,6.018c-0.384,0.018-0.751-0.026-1.118-0.105
					l-0.009-0.009c-1.127-1.031-1.869-2.603-1.931-4.385c-0.105-3.223,2.062-5.923,4.857-6.019c0.384-0.017,0.751,0.018,1.118,0.105
					C168.566,125.071,169.318,126.643,169.379,128.434z"/>
				<path style="fill:none;" d="M169.379,128.434c0.105,3.223-2.062,5.923-4.857,6.018c-0.384,0.018-0.751-0.026-1.118-0.105
					l-0.009-0.009c-2.263-0.507-4.027-2.769-4.123-5.547c-0.105-3.232,2.062-5.922,4.857-6.027c1.24-0.044,2.402,0.437,3.311,1.275
					C168.566,125.071,169.318,126.643,169.379,128.434z"/>
				<path style="fill:#FFFFFF;" d="M185.347,127.866c0.105,3.223-2.062,5.922-4.857,6.019c-0.384,0.017-0.751-0.018-1.118-0.105
					c-2.271-0.498-4.036-2.769-4.132-5.556c-0.105-3.232,2.061-5.922,4.857-6.027c1.24-0.044,2.402,0.437,3.311,1.275
					c0,0,0.009,0,0.009,0.009C184.543,124.512,185.286,126.084,185.347,127.866z"/>
				<path style="fill:#272532;" d="M185.347,127.866c0.105,3.223-2.062,5.922-4.857,6.019c-0.384,0.017-0.751-0.018-1.118-0.105
					c-1.127-1.031-1.878-2.603-1.939-4.394c-0.105-3.223,2.062-5.922,4.857-6.019c0.384-0.017,0.751,0.026,1.118,0.105
					c0,0,0.009,0,0.009,0.009C184.543,124.512,185.286,126.084,185.347,127.866z"/>
				<path style="fill:none;" d="M185.347,127.866c0.105,3.223-2.062,5.922-4.857,6.019c-0.384,0.017-0.751-0.018-1.118-0.105
					c-2.271-0.498-4.036-2.769-4.132-5.556c-0.105-3.232,2.061-5.922,4.857-6.027c1.24-0.044,2.402,0.437,3.311,1.275
					c0,0,0.009,0,0.009,0.009C184.543,124.512,185.286,126.084,185.347,127.866z"/>
				
					<path style="fill:none;stroke:#FFFFFF;stroke-width:0.7087;stroke-linecap:round;stroke-linejoin:round;stroke-miterlimit:10;" d="
					M142.315,135.626c-0.973-0.657-2.146-1.041-3.409-1.041c-3.367,0-6.097,2.73-6.097,6.097c0,2.143,1.106,4.028,2.779,5.116"/>
				<path style="fill:#FFB383;" d="M149.473,130.418c1.295,3.715-0.204,7.325-3.349,8.063c-3.145,0.738-6.744-1.676-8.039-5.391
					c-1.295-3.715,0.204-7.325,3.349-8.063C144.579,124.289,148.178,126.702,149.473,130.418z"/>
				
					<path style="fill:none;stroke:#272532;stroke-width:0.7087;stroke-linecap:round;stroke-linejoin:round;stroke-miterlimit:10;" d="
					M181.334,338.824c0,0-6.912,0.467-6.912,8.407"/>
				
					<path style="fill:none;stroke:#272532;stroke-width:0.7087;stroke-linecap:round;stroke-linejoin:round;stroke-miterlimit:10;" d="
					M176.103,341.533c0,0-6.901-3.424-6.901-7.441"/>
				
					<path style="fill:none;stroke:#272532;stroke-width:0.7087;stroke-linecap:round;stroke-linejoin:round;stroke-miterlimit:10;" d="
					M164.707,346.016c1.401-2.895-1.308-5.791-3.269-5.698"/>
				<path style="fill:#D7DFF2;" d="M140.702,154.164c0,0,11.769,13.17,10.088,24.659c-1.681,11.489-7.005,86.308-7.005,86.308
					l-26.621-3.923c0,0,12.33-42.593,10.088-51.561C125.009,200.681,101.471,157.247,140.702,154.164z"/>
				<path style="fill:#D7DFF2;" d="M173.261,155.189c0,0,2.956,4.579-1.528,16.348c-4.483,11.769-2.242,91.352-2.242,91.352h14.572
					c0,0,0.56-50.72,0.56-56.604C184.623,200.4,193.003,154.533,173.261,155.189z"/>
				<path style="fill:#272532;" d="M187.498,119.417c0,0-10.368-2.242-11.489-6.725c-8.967,8.687-29.984,12.61-29.984,12.61
					c-7.846-18.775,1.962-31.385,19.335-30.824C180.768,94.974,188.339,101.483,187.498,119.417z"/>
				
					<path style="fill:none;stroke:#3545C3;stroke-width:0.7087;stroke-linecap:round;stroke-linejoin:round;stroke-miterlimit:10;" d="
					M172.282,108.029c0,0-3.252,10.297-24.207,11.923"/>
				<path style="fill:#272532;" d="M149.669,119.977c2.774,7.766-0.28,15.973-8.967,2.802
					C132.015,109.609,146.867,112.131,149.669,119.977z"/>
				
					<path style="fill:none;stroke:#272532;stroke-width:0.7087;stroke-linecap:round;stroke-linejoin:round;stroke-miterlimit:10;" d="
					M135.658,154.725c0,0,4.483,10.088,14.291,19.055"/>
				
					<path style="fill:none;stroke:#272532;stroke-width:0.7087;stroke-linecap:round;stroke-linejoin:round;stroke-miterlimit:10;" d="
					M172.086,172.939c8.967-6.165,6.445-16.533,6.445-16.533"/>
				<path style="fill:#D7DFF2;" d="M137.787,176.862c0,0-14.459,33.575-28.75,32.174c-14.291-1.401-1.514-26.85-1.514-26.85
					s15.692-27.181,24.379-25.78"/>
				
					<line style="fill:none;stroke:#272532;stroke-width:0.7087;stroke-linecap:round;stroke-linejoin:round;stroke-miterlimit:10;" x1="124.336" y1="200.12" x2="135.825" y2="183.587"/>
				
					<path style="fill:none;stroke:#3545C3;stroke-width:0.7087;stroke-linecap:round;stroke-linejoin:round;stroke-miterlimit:10;" d="
					M171.559,103.513c0,0-6.142,13.007-26.014,11.562"/>
				
					<path style="fill:none;stroke:#3545C3;stroke-width:0.7087;stroke-linecap:round;stroke-linejoin:round;stroke-miterlimit:10;" d="
					M168.669,100.984c0,0-12.104,10.297-26.014,10.297"/>
				
					<path style="fill:none;stroke:#3545C3;stroke-width:0.7087;stroke-linecap:round;stroke-linejoin:round;stroke-miterlimit:10;" d="
					M159.094,100.984c0,0-11.682,1.023-18.426,7.768"/>
				
					<path style="fill:none;stroke:#3545C3;stroke-width:0.7087;stroke-linecap:round;stroke-linejoin:round;stroke-miterlimit:10;" d="
					M176.979,109.475c0,0,2.71,3.071,7.407,3.794"/>
				
					<path style="fill:none;stroke:#3545C3;stroke-width:0.7087;stroke-linecap:round;stroke-linejoin:round;stroke-miterlimit:10;" d="
					M176.798,104.597c0,0,3.432-0.181,5.781,3.071"/>
				
					<path style="fill:none;stroke:#3545C3;stroke-width:0.7087;stroke-linecap:round;stroke-linejoin:round;stroke-miterlimit:10;" d="
					M136.332,117.604c-4.697,4.336-6.865,2.71-6.865,9.755c0,7.045,2.529,6.503-1.445,9.575c-3.974,3.071-5.419,2.89-4.697,6.323"/>
				
					<path style="fill:none;stroke:#3545C3;stroke-width:0.7087;stroke-linecap:round;stroke-linejoin:round;stroke-miterlimit:10;" d="
					M130.326,143.302c-4.516,3.974-5.962,2.89-5.781,6.865c0.181,3.974-0.542,9.213-4.878,10.478"/>
				
					<path style="fill:none;stroke:#3545C3;stroke-width:0.7087;stroke-linecap:round;stroke-linejoin:round;stroke-miterlimit:10;" d="
					M120.977,148.224c0,0,0.542,6.503-4.878,8.31"/>
				
					<path style="fill:none;stroke:#3545C3;stroke-width:0.7087;stroke-linecap:round;stroke-linejoin:round;stroke-miterlimit:10;" d="
					M141.21,119.049c0,0-5.42,1.626-6.865,6.865"/>
				
					<path style="fill:none;stroke:#3545C3;stroke-width:0.7087;stroke-linecap:round;stroke-linejoin:round;stroke-miterlimit:10;" d="
					M146.088,101.887c0,0-5.6-1.265-9.936,7.949"/>
				
					<path style="fill:none;stroke:#FFFFFF;stroke-width:0.7087;stroke-linecap:round;stroke-linejoin:round;stroke-miterlimit:10;" d="
					M135.588,145.798c0.955,0.621,2.095,0.981,3.318,0.981c3.367,0,6.097-2.73,6.097-6.097c0-2.105-1.066-3.96-2.688-5.056"/>
				<path style="fill:#FFFFFF;" d="M186.16,134.898H156.96c0,0,1.747,16.77,14.6,16.458
					C184.413,151.044,186.16,134.898,186.16,134.898z"/>
				
					<line style="fill:none;stroke:#FFFFFF;stroke-width:0.7087;stroke-linecap:round;stroke-linejoin:round;stroke-miterlimit:10;" x1="148.349" y1="129.194" x2="157.804" y2="135.457"/>
				
					<path style="fill:none;stroke:#FFFFFF;stroke-width:0.7087;stroke-linecap:round;stroke-linejoin:round;stroke-miterlimit:10;" d="
					M146.45,149.293c0,0,10.59-1.44,15.011-3.495"/>
				
					<line style="fill:none;stroke:#FFFFFF;stroke-width:0.7087;stroke-linecap:round;stroke-linejoin:round;stroke-miterlimit:10;" x1="186.16" y1="134.898" x2="188.101" y2="133.261"/>
				
					<path style="fill:none;stroke:#FFFFFF;stroke-width:0.7087;stroke-linecap:round;stroke-linejoin:round;stroke-miterlimit:10;" d="
					M181.39,148.98c0,0-0.475-0.741-1.284-1.055"/>
				<path style="fill:#D7DFF2;" d="M118.546,202.456l21.318,18.531L124.996,239.5c0,0-16.018-11.399-20.885-23.753
					c-4.867-12.354,0.478-26.483,0.478-26.483L118.546,202.456z"/>
				<path style="fill:#D7DFF2;" d="M180.748,158.123c0,0,6.598,4.027,10.966,13.511c4.368,9.484,7.113,30.823,7.113,30.823
					l18.003,4.891l-4.16,21.271c0,0-14.353-1.329-22.397-6.695c-8.044-5.366-10.415-16.722-10.415-16.722L180.748,158.123z"/>
				
					<path style="fill:none;stroke:#272532;stroke-width:0.7087;stroke-linecap:round;stroke-linejoin:round;stroke-miterlimit:10;" d="
					M184.566,214.382l-0.521-9.117c0,0,5.235-23.024,0.93-36.688"/>
				<polygon style="fill:#FFB383;" points="139.864,220.988 131.071,231.936 145.742,238.386 150.954,229.687 				"/>
				<path style="fill:#A3D5DB;" d="M143.518,222.275l-7.58,13.477L146.7,239.5c0,0,4.705,2.929,7.125,3.116
					c2.421,0.187,4.418-0.499,4.542-1.872c0,0,1.622-0.998,1.497-3.12c0,0,1.497-1.373,1.248-3.057
					c-0.249-1.685-2.168-3.151-5.023-3.525c0,0,2.387-1.076,2.48-2.62c0.094-1.544-7.207-0.187-7.207-0.187L143.518,222.275z"/>
				<path style="fill:#A3D5DB;" d="M241.195,211.394c-0.419-0.56-2.487-0.653-4.503-0.601l0.011-0.31
					c2.237-0.385,4.483-1.165,3.839-1.962c-0.905-1.119-8.72,0-8.72,0l0,0l-1.337-0.279l0,0c1.424-1.928,1.946-5.559,0.386-4.685
					c-1.35,0.756-3.896,4.169-4.559,5.077l-5.674-1.083l-1.229,12.354l10.463-0.775l6.551-0.772l0.002-0.049
					c1.955-0.223,3.67-0.74,3.179-1.491c-0.296-0.452-1.593-0.688-3.098-0.807l0.006-0.159c2.268-0.158,4.589-0.708,4.028-1.567
					c-0.35-0.535-2.103-0.767-3.942-0.86l0.005-0.138C239.043,213.048,241.87,212.297,241.195,211.394z"/>
				<path style="fill:#FFFFFF;" d="M175.667,217.745c-0.927-0.231-1.944,0.588-2.427,1.875c-1.267-0.077-3.135,0.127-4.827,1.564
					c-2.901,2.465-5.241,4.96-5.241,4.96s-1.061-0.655-2.031,0.187c-0.97,0.842-5.051,4.711-5.051,4.711
					c1.622,3.744,4.305,3.151,4.305,3.151s3.713-4.617,3.993-5.428c0.281-0.811,0-1.685,0-1.685s4.773-5.335,6.146-5.927
					c0.668-0.288,1.637-0.443,2.458-0.527c-0.161,1.344,0.354,2.521,1.27,2.749c1.036,0.258,2.191-0.792,2.579-2.347
					C177.229,219.473,176.703,218.003,175.667,217.745z"/>
				
					<polyline style="fill:none;stroke:#272532;stroke-width:0.7087;stroke-linecap:round;stroke-linejoin:round;stroke-miterlimit:10;" points="
					111.26,208.299 120.027,204.179 139.864,220.988 124.996,239.5 				"/>
				
					<line style="fill:none;stroke:#272532;stroke-width:0.7087;stroke-linecap:round;stroke-linejoin:round;stroke-miterlimit:10;" x1="198.826" y1="202.456" x2="191.749" y2="211.664"/>
				
					<path style="fill:none;stroke:#272532;stroke-width:0.7087;stroke-linecap:round;stroke-linejoin:round;stroke-miterlimit:10;" d="
					M235.924,209.036c0,0-0.094,5.534,0,8.248"/>
				
					<path style="fill:none;stroke:#272532;stroke-width:0.7087;stroke-linecap:round;stroke-linejoin:round;stroke-miterlimit:10;" d="
					M230.484,208.242c0,0-0.082,4.268-2.048,5.391"/>
				
					<line style="fill:none;stroke:#272532;stroke-width:0.7087;stroke-linecap:round;stroke-linejoin:round;stroke-miterlimit:10;" x1="159.865" y1="237.625" x2="156.933" y2="236.377"/>
				
					<line style="fill:none;stroke:#272532;stroke-width:0.7087;stroke-linecap:round;stroke-linejoin:round;stroke-miterlimit:10;" x1="158.368" y1="240.744" x2="155.56" y2="239.933"/>
				
					<line style="fill:none;stroke:#272532;stroke-width:0.7087;stroke-linecap:round;stroke-linejoin:round;stroke-miterlimit:10;" x1="155.81" y1="242.646" x2="154.187" y2="241.93"/>
			</g>
			<g>
				<g>
					<path style="fill:#D7DFF2;" d="M303.069,49.154c-16.536-4.742-79.801-7.986-83.545-2.246c-2.76,4.232-2.4,18.225-2.02,25.289
						c-10.165,8.229-23.4,30.365-18.725,39.197c5.293,9.998,57.698-9.998,69.918-22.152c10.653-10.596-25.86-20.917-41.859-20.458
						c-0.778-5.64-1.108-14.065,3.667-14.888c7.238-1.248,67.636-2.745,69.522,6.739c1.886,9.484,6.378,82.2,6.378,82.2l7.958,1.584
						C314.363,144.419,319.605,53.896,303.069,49.154z"/>
					<path style="fill:#A3D5DB;" d="M204.177,106.739c11.763-10.021,43.931-23.212,57.695-22.184
						c13.765,1.028-17.215,15.03-32.653,19.953C209.113,110.92,199.796,110.471,204.177,106.739z"/>
				</g>
				<g>
					<path style="fill:#97A9CC;" d="M171.283,361.927c0,0-33.024,7.862-37.403,11.605c-4.379,3.744-1.384,7.487,11.344,15.349
						c12.729,7.862,41.522,23.211,55.765,23.585c14.242,0.374,86.682-22.649,92.859-26.767c6.177-4.118,5.99-8.049,3.182-10.108
						c-2.808-2.059-29.388-10.108-37.437-12.541C251.545,360.616,171.283,361.927,171.283,361.927z"/>
					<path style="fill:#AABBE3;" d="M279.435,320.122c0,0-6.042,49.416-26.107,55.656c-20.065,6.239-50.014-5.491-52.26-13.228
						C198.822,354.814,245.243,320.621,279.435,320.122z"/>
					<polygon style="fill:#AABBE3;" points="315.624,176.105 312.515,196.207 306.406,194.299 310.068,176.105 					"/>
					<path style="fill:#A3D5DB;" d="M327.729,144.419c9.172,5.616,3.744,32.468-1.31,36.076c-5.054,3.607-49.277-7.27-55.805-11.659
						s1.175-32.158,7.712-34.558C284.864,131.878,318.557,138.804,327.729,144.419z"/>
					<polygon style="fill:#AABBE3;" points="283.571,167.105 280.462,187.206 274.352,185.299 278.015,167.105 					"/>
					<path style="fill:#A3D5DB;" d="M200.44,372.534c0,0,9.863-23.022,32.824-36.469c22.961-13.447,56.116,0.435,76.028-23.025
						c19.912-23.46,25.573-111.898,16.089-118.313c-9.484-6.416-48.953-13.451-69.786-12.911
						c-20.833,0.54-22.745,54.634-42.328,70.282c-19.583,15.648-49.68,22.76-62.76,41.898c-13.08,19.138-28.055,46.27-22.564,60.158
						S184.837,395.182,200.44,372.534z"/>
					<polygon style="fill:#393F3F;" points="162.656,316.711 159.96,320.139 169.27,334.558 175.594,323.267 					"/>
					<path style="fill:#AABBE3;" d="M241.189,250.708c-17.035-4.245-66.08,9.172-67.577,19.093
						c-1.497,9.921,55.968,4.384,65.514-3.798C248.672,257.821,244.945,251.644,241.189,250.708z"/>
					<path style="fill:#B9722E;" d="M168.702,340.63l-2.375,3.642c0,0-7.853-3.724-10.872-6.441
						c-2.466-0.81-16.296-1.295-23.147-13.748c0.822-1.261,2.284-2.703,2.284-2.703S164.963,333.201,168.702,340.63z"/>
					<path style="fill:#603226;" d="M173.361,328.895c0,0,1.766,4.945-4.658,11.735c-6.82-4.847-13.745-7.196-17.783-7.433
						c-4.037-0.237-13.824-4.823-17.039-10.912c4.378-7.326,8.824-3.429,11.211-1.273c2.387,2.156,15.509-1.615,15.783-2.035
						C162.403,327.959,169.798,329.766,173.361,328.895z"/>
					
						<path style="fill:none;stroke:#272532;stroke-width:0.7087;stroke-linecap:round;stroke-linejoin:round;stroke-miterlimit:10;" d="
						M146.797,332.555c0,0,1.978-7.394-0.388-10.884"/>
					<path style="fill:#393F3F;" d="M274.436,272.201c0,0-3.545,20.54-20.215,28.027c-16.67,7.487-54.169-2.792-54.169-2.792
						l-23.96,27.89l-18.531-8.798c0,0,15.786-32.508,26.767-40.993c10.981-8.486,45.735-5.007,45.735-5.007l4.745-7.863
						L274.436,272.201z"/>
					<path style="fill:#474D4D;" d="M285.238,276.945c0,0,1.243,20.592-15.426,28.08c-16.67,7.487-55.354,4.368-55.354,4.368
						l-18.219,30.169l-24.955-14.575c0,0,16.968-34.188,27.95-42.674c10.981-8.486,46.421-6.988,46.421-6.988l4.745-7.863
						L285.238,276.945z"/>
					<path style="fill:#FFBEAE;" d="M235.733,217.078l-7.113,25.831l-25.113,11.796l4.385,11.235l26.785-4.981
						c5.634-1.308,10.024-5.723,11.299-11.365l7.351-32.516H235.733z"/>
					<path style="fill:#4A8A74;" d="M262.731,193.781c5.038,0.636,10.611,1.673,16.555,3.317c6.441,1.782,12.153,3.956,17.095,6.195
						c5.826,2.639,8.829,9.154,7.088,15.308l-19.105,67.534l-54.75-15.488l19.105-67.536
						C250.455,196.975,256.404,192.982,262.731,193.781z"/>
					<path style="fill:#FFFFFF;" d="M289.984,201.046l-28.795,30.167l5.169-36.915c4.044,0.64,8.375,1.54,12.927,2.799
						C284.516,198.546,285.737,199.257,289.984,201.046z"/>
					<path style="fill:#FFBEAE;" d="M269.788,195.502c1.726,1.499,4.435,3.364,8.311,4.413c3.88,1.05,7.615,0.941,10.482,0.573
						c1.897-5.523,3.857-11.233,5.885-17.137l-20.466-2.741L269.788,195.502z"/>
					<path style="fill:#FFBEAE;" d="M259.538,157.761c-6.026,14.066-0.364,29.543,6.702,32.575
						c14.063,6.034,28.501-0.845,34.527-14.911c6.026-14.066,4.363-28.274-9.703-34.301S265.564,143.695,259.538,157.761z"/>
					
						<path style="fill:none;stroke:#272532;stroke-width:0.7087;stroke-linecap:round;stroke-linejoin:round;stroke-miterlimit:10;" d="
						M270.614,170.613c-1.369-3.639-4.984-1.072-2.395,2.195"/>
					
						<path style="fill:none;stroke:#272532;stroke-width:0.7087;stroke-linecap:round;stroke-linejoin:round;stroke-miterlimit:10;" d="
						M272.893,177.547c-1.694,7.477-5.641,4.881-6.208-2.244L272.893,177.547z"/>
					<path style="fill:#FFBEAE;" d="M294.167,177.31c-2.351,3.088-2.384,7.018-0.073,8.777c2.311,1.759,6.09,0.682,8.441-2.407
						c2.351-3.088,2.384-7.018,0.073-8.777C300.297,173.144,296.518,174.221,294.167,177.31z"/>
					
						<path style="fill:none;stroke:#272532;stroke-width:0.7087;stroke-linecap:round;stroke-linejoin:round;stroke-miterlimit:10;" d="
						M274.263,191.455c0,0-3.311,0.812-5.797-0.183"/>
					<path style="fill:#B9722E;" d="M310.58,152.015c-0.003-3.132-0.171-7.344-2.745-9.992c-4.766-4.904-7.997-3.26-17.543-6.067
						c-9.546-2.808-7.019-7.821-15.349-9.787c-8.33-1.965-7.793,2.433-10.261,3.557c-2.468,1.123-7.39-0.275-7.69,4.121
						c-0.3,4.396,2.414,6.268-0.955,7.204s-3.001,5.938,0.468,8.049c3.431,2.087,5.61,3.267,5.643,3.244
						c5.16-6.052,32.015,6.841,32.015,6.841s-2.072,6.098-0.765,10.163c1.307,4.066-1.82,9.585-1.82,9.585s0,0,3.735,1.6
						c3.163-7.028,6.338-6.223,6.338-6.223C315.936,162.24,314.796,156.025,310.58,152.015z"/>
					
						<path style="fill:none;stroke:#5E1A1E;stroke-width:0.7087;stroke-linecap:round;stroke-linejoin:round;stroke-miterlimit:10;" d="
						M307.827,156.271c0,0,0.197,6.181-1.422,9.959"/>
					
						<path style="fill:none;stroke:#5E1A1E;stroke-width:0.7087;stroke-linecap:round;stroke-linejoin:round;stroke-miterlimit:10;" d="
						M310.709,154.38c0,0,0.273,6.179-1.299,9.976"/>
					
						<path style="fill:none;stroke:#5E1A1E;stroke-width:0.7087;stroke-linecap:round;stroke-linejoin:round;stroke-miterlimit:10;" d="
						M303.069,163.024c0,0-3.973,3.582-4.12,6.771"/>
					
						<path style="fill:none;stroke:#5E1A1E;stroke-width:0.7087;stroke-linecap:round;stroke-linejoin:round;stroke-miterlimit:10;" d="
						M302.087,157.865c0,0-3.973,3.582-4.12,6.771"/>
					
						<path style="fill:none;stroke:#272532;stroke-width:0.7087;stroke-linecap:round;stroke-linejoin:round;stroke-miterlimit:10;" d="
						M288.67,202.603c0,0-17.857,1.355-20.293-7.876"/>
					<path style="fill:#AABBE3;" d="M304.834,272.453c-17.035-4.245-66.08,9.172-67.577,19.093
						c-1.497,9.921,55.968,4.384,65.514-3.798C312.317,279.566,308.59,273.389,304.834,272.453z"/>
					<path style="fill:#FFFFFF;" d="M267.864,165.048c-0.262,2.996-2.481,5.259-4.953,5.04c-0.131-0.009-0.262-0.026-0.393-0.052
						c-2.262-0.446-3.852-2.926-3.608-5.774c0.262-2.996,2.481-5.259,4.944-5.04c0.742,0.061,1.415,0.341,2,0.786
						C267.218,161.029,268.039,162.943,267.864,165.048z"/>
					<path style="fill:#FFFFFF;" d="M286.112,170.341c-0.297,3.415-2.822,5.992-5.634,5.748c-0.184-0.017-0.367-0.044-0.55-0.087
						c-2.533-0.559-4.289-3.363-4.009-6.551c0.297-3.415,2.822-5.992,5.634-5.748c1.171,0.105,2.201,0.673,2.996,1.546
						C285.658,166.489,286.287,168.332,286.112,170.341z"/>
					<path style="fill:#272532;" d="M267.864,165.048c-0.262,2.996-2.481,5.259-4.953,5.04c-0.131-0.009-0.262-0.026-0.393-0.052
						c-0.76-1.188-1.153-2.725-1.013-4.368c0.253-2.883,2.088-5.171,4.35-5.66C267.218,161.029,268.039,162.943,267.864,165.048z"/>
					<path style="fill:#272532;" d="M286.112,170.341c-0.297,3.415-2.822,5.992-5.634,5.748c-0.184-0.017-0.367-0.044-0.55-0.087
						c-1.127-1.24-1.747-3.084-1.572-5.093c0.297-3.415,2.822-5.992,5.634-5.748c0.192,0.017,0.376,0.044,0.559,0.087
						C285.658,166.489,286.287,168.332,286.112,170.341z"/>
					<path style="fill:#4A8A74;" d="M298.351,204.405l-8.366,32.335h20.702c0,0,3.556-12.541,0.749-21.152
						C308.628,206.978,298.351,204.405,298.351,204.405z"/>
					<path style="fill:#FFBEAE;" d="M293.091,236.74l-7.113,25.831l-32.65,14.784l4.386,11.235l34.322-7.969
						c5.634-1.308,10.024-5.723,11.299-11.365l7.351-32.516H293.091z"/>
					<path style="fill:#FFBEAE;" d="M263.048,286.135l-4.867-9.244c0,0-4.735-1.43-10.51-1.136
						c-5.775,0.294-10.174,6.096-9.331,8.062c0.842,1.965,3.65,0,3.65,0s-2.153,2.621-1.123,4.773
						c1.029,2.153,4.399-0.842,4.399-0.842s-2.153,3.751-0.187,4.59c1.463,0.624,3.287-0.926,4.125-1.76
						c-0.42,1.118-0.594,2.341,0.382,2.774c1.595,0.708,4.033-2.407,4.878-3.58c2.14-0.219,4.483-0.581,5.871-1.181
						C263.372,287.276,263.048,286.135,263.048,286.135z"/>
					<path style="fill:#4A8A74;" d="M260.208,193.68c0,0-6.924-1.764-12.664,0.619c-5.74,2.384-14.975,20.104-14.975,20.104
						l12.604,10.981L260.208,193.68z"/>
					<path style="fill:#FFBEAE;" d="M213.266,261.804c0,0-0.563,4.544-3.631,6.531c-2.106,1.364-6.131,2.412-7.381,1.236
						c-1.25-1.177,2.798-3.236,2.798-3.236s-1.131-0.059-4.345-0.059s-3.869,4.413-5.952,3.942
						c-2.083-0.471-1.071-2.471-1.071-2.471s-1.131,1.294-2.202,0.235c-1.071-1.059,0-3.118,0-3.118s-0.655,1.412-1.786,1.177
						s-0.893-2.177,0-3.53c0,0-1.078,1.552-1.667,0.765c-1.012-1.353-0.346-3.714,3.928-6.472c5.655-3.648,13.512-3.53,16.131-2.942
						C210.706,254.449,213.266,261.804,213.266,261.804z"/>
					<polygon style="fill:#393F3F;" points="176.29,327.911 174.346,331.815 186.388,344.044 189.872,335.844 					"/>
					<path style="fill:#B9722E;" d="M187.064,350.106l-1.586,4.048c0,0-8.445-2.053-11.953-4.101
						c-2.579-0.293-16.22,2.039-25.456-8.765c0.549-1.401,1.688-3.11,1.688-3.11S181.895,343.59,187.064,350.106z"/>
					<path style="fill:#723F2E;" d="M189.244,337.67c0,0,2.733,4.484-2.18,12.436c-7.662-3.362-14.92-4.257-18.921-3.67
						c-4.002,0.587-14.515-1.917-18.899-7.228c2.801-8.062,7.945-5.148,10.72-3.522c2.775,1.626,14.859-4.728,15.042-5.195
						C178.325,338.977,185.933,339.245,189.244,337.67z"/>
					
						<path style="fill:none;stroke:#272532;stroke-width:0.7087;stroke-linecap:round;stroke-linejoin:round;stroke-miterlimit:10;" d="
						M163.976,346.643c0,0,0.436-7.642-2.589-10.578"/>
					
						<ellipse style="fill:none;stroke:#272532;stroke-width:0.7087;stroke-linecap:round;stroke-linejoin:round;stroke-miterlimit:10;" cx="262.149" cy="165.03" rx="6.555" ry="7.696"/>
					
						<ellipse style="fill:none;stroke:#272532;stroke-width:0.7087;stroke-linecap:round;stroke-linejoin:round;stroke-miterlimit:10;" cx="281.015" cy="170.255" rx="7.272" ry="8.169"/>
					
						<path style="fill:none;stroke:#272532;stroke-width:0.7087;stroke-linecap:round;stroke-linejoin:round;stroke-miterlimit:10;" d="
						M268.703,166.605c0,0,2.058-0.423,5.21,1.892"/>
					
						<path style="fill:none;stroke:#272532;stroke-width:0.7087;stroke-linecap:round;stroke-linejoin:round;stroke-miterlimit:10;" d="
						M287.738,173.372c0,0,7.597,1.828,9.474,3.783"/>
					
						<path style="fill:none;stroke:#5E1A1E;stroke-width:0.7087;stroke-linecap:round;stroke-linejoin:round;stroke-miterlimit:10;" d="
						M309.291,152.187c0,0-4.773-0.699-7.955,0.914"/>
					
						<path style="fill:none;stroke:#5E1A1E;stroke-width:0.7087;stroke-linecap:round;stroke-linejoin:round;stroke-miterlimit:10;" d="
						M258.19,135.154c0,0,4.824,6.551,8.495,8.236"/>
					
						<path style="fill:none;stroke:#5E1A1E;stroke-width:0.7087;stroke-linecap:round;stroke-linejoin:round;stroke-miterlimit:10;" d="
						M256.992,144.419c0,0,2.376,1.965,5.156,2.433"/>
					
						<path style="fill:none;stroke:#5E1A1E;stroke-width:0.7087;stroke-linecap:round;stroke-linejoin:round;stroke-miterlimit:10;" d="
						M266.145,131.531c0,0,1.858,4.933,3.643,5.494"/>
					
						<path style="fill:none;stroke:#5E1A1E;stroke-width:0.7087;stroke-linecap:round;stroke-linejoin:round;stroke-miterlimit:10;" d="
						M307.835,148.631c0,0-1.255-4.96-4.766-6.926"/>
					
						<path style="fill:none;stroke:#5E1A1E;stroke-width:0.7087;stroke-linecap:round;stroke-linejoin:round;stroke-miterlimit:10;" d="
						M304.067,146.853c0,0-3.668-5.241-10.874-6.271"/>
					
						<path style="fill:none;stroke:#5E1A1E;stroke-width:0.7087;stroke-linecap:round;stroke-linejoin:round;stroke-miterlimit:10;" d="
						M301.009,149.754c0,0-2.606-3.276-8.533-4.96"/>
					
						<path style="fill:none;stroke:#5E1A1E;stroke-width:0.7087;stroke-linecap:round;stroke-linejoin:round;stroke-miterlimit:10;" d="
						M294.163,159.184c0,0-3.146-7.184-13.149-10.553c-10.003-3.369-13.707-0.749-13.707-0.749"/>
					
						<polyline style="fill:none;stroke:#272532;stroke-width:0.7087;stroke-linecap:round;stroke-linejoin:round;stroke-miterlimit:10;" points="
						293.091,236.74 289.984,236.74 295.32,216.118 					"/>
					
						<line style="fill:none;stroke:#272532;stroke-width:0.7087;stroke-linecap:round;stroke-linejoin:round;stroke-miterlimit:10;" x1="292.382" y1="216.118" x2="293.992" y2="221.25"/>
					
						<path style="fill:none;stroke:#272532;stroke-width:0.7087;stroke-linecap:round;stroke-linejoin:round;stroke-miterlimit:10;" d="
						M242.963,223.459c0,0,4.901-22.885,10.891-27.253"/>
					
						<polyline style="fill:none;stroke:#272532;stroke-width:0.7087;stroke-linecap:round;stroke-linejoin:round;stroke-miterlimit:10;" points="
						264.225,193.981 256.992,208.436 263.483,214.838 					"/>
					
						<polyline style="fill:none;stroke:#272532;stroke-width:0.7087;stroke-linecap:round;stroke-linejoin:round;stroke-miterlimit:10;" points="
						293.992,202.245 286.049,218.684 273.149,218.684 					"/>
					
						<polyline style="fill:none;stroke:#272532;stroke-width:0.7087;stroke-linecap:round;stroke-linejoin:round;stroke-miterlimit:10;" points="
						277.938,218.684 276.565,226.429 261.19,231.214 256.474,218.17 261.19,212.576 					"/>
					
						<path style="fill:none;stroke:#272532;stroke-width:0.7087;stroke-linecap:round;stroke-linejoin:round;stroke-miterlimit:10;" d="
						M285.978,262.572c0,0,3.69,2.643,5.811,5.638"/>
					
						<path style="fill:none;stroke:#272532;stroke-width:0.7087;stroke-linecap:round;stroke-linejoin:round;stroke-miterlimit:10;" d="
						M241.99,283.817c0,0,1.412-2.005,3.19-2.66"/>
					
						<path style="fill:none;stroke:#272532;stroke-width:0.7087;stroke-linecap:round;stroke-linejoin:round;stroke-miterlimit:10;" d="
						M245.266,287.748c0,0,1.786-2.636,2.91-3.163"/>
					
						<path style="fill:none;stroke:#272532;stroke-width:0.7087;stroke-linecap:round;stroke-linejoin:round;stroke-miterlimit:10;" d="
						M249.204,290.577c0,0,0.453-1.465,1.443-2.307"/>
					
						<path style="fill:none;stroke:#272532;stroke-width:0.7087;stroke-linecap:round;stroke-linejoin:round;stroke-miterlimit:10;" d="
						M193.683,267.746c0,0,1.332-2.874,2.736-3.529"/>
					
						<path style="fill:none;stroke:#272532;stroke-width:0.7087;stroke-linecap:round;stroke-linejoin:round;stroke-miterlimit:10;" d="
						M191.481,264.863c0,0,0.496-1.724,2.202-2.963"/>
					
						<path style="fill:none;stroke:#272532;stroke-width:0.7087;stroke-linecap:round;stroke-linejoin:round;stroke-miterlimit:10;" d="
						M189.695,262.51c0,0,0.404-1.288,1.786-2.224"/>
					
						<path style="fill:none;stroke:#272532;stroke-width:0.7087;stroke-linecap:round;stroke-linejoin:round;stroke-miterlimit:10;" d="
						M228.62,242.91c0,0,3.52,2.339,4.643,4.96"/>
					
						<path style="fill:none;stroke:#272532;stroke-width:0.7087;stroke-linecap:round;stroke-linejoin:round;stroke-miterlimit:10;" d="
						M133.88,376.277c0,0,37.238,23.211,63.943,26.455c26.705,3.244,90.846-21.182,95.339-25.191"/>
					
						<path style="fill:none;stroke:#272532;stroke-width:0.7087;stroke-linecap:round;stroke-linejoin:round;stroke-miterlimit:10;" d="
						M241.115,332.555c0,0,3.878,20.003,12.863,21.599c8.985,1.596,19.611-18.477,21.505-26.129"/>
					
						<path style="fill:none;stroke:#272532;stroke-width:0.7087;stroke-linecap:round;stroke-linejoin:round;stroke-miterlimit:10;" d="
						M185.095,371.66c0,0,20.155-35.939,44.519-48.293s54.318-1.872,69.291-17.595c14.972-15.724,16.844-36.501,17.593-45.673"/>
					
						<path style="fill:none;stroke:#272532;stroke-width:0.7087;stroke-linecap:round;stroke-linejoin:round;stroke-miterlimit:10;" d="
						M316.498,252.05c0,0,4.492-27.516,2.995-40.432c-1.497-12.916,4.305-13.852,4.305-13.852"/>
					
						<path style="fill:none;stroke:#272532;stroke-width:0.7087;stroke-linecap:round;stroke-linejoin:round;stroke-miterlimit:10;" d="
						M328.103,148.631c0,0-9.546,24.237-7.955,26.672c1.591,2.435,4.773,2.188,6.458-1.245"/>
					<path style="fill:#C1D3F4;" d="M264.823,336.812c-0.642,2.128-2.226,3.532-3.537,3.136c-1.311-0.396-1.854-2.442-1.211-4.569
						c0.642-2.128,2.226-3.532,3.537-3.136C264.923,332.638,265.465,334.684,264.823,336.812z"/>
				</g>
			</g>
			<g>
				<path style="fill:#AABBE3;" d="M302.768,329.408c0,0,1.195,72.863,0.953,77.244c-0.241,4.38,30.82,16.327,41.971,16.327
					s40.221-13.141,43.805-17.522c3.584-4.381,0-83.969,0-83.969L302.768,329.408z"/>
				<path style="fill:#D7DFF2;" d="M383.33,293.719c-13.668-5.751-28.871-6.218-42.83-1.267
					c-17.01,6.033-40.799,14.965-49.01,20.456c-13.304,8.897-2.47,22.111,6.265,26.519c8.734,4.408,30.327,9.962,43.956,7.889
					c17.92-2.725,50.508-15.454,57.07-25.778c6.563-10.324,5.332-18.712-8.204-24.686
					C388.022,295.725,385.614,294.68,383.33,293.719z"/>
				
					<path style="fill:none;stroke:#272532;stroke-width:0.7087;stroke-linecap:round;stroke-linejoin:round;stroke-miterlimit:10;" d="
					M287.352,324.02c0,0,16.327,8.164,40.42,11.549c24.093,3.385,50.774-10.752,50.774-10.752"/>
				
					<path style="fill:none;stroke:#272532;stroke-width:0.7087;stroke-linecap:round;stroke-linejoin:round;stroke-miterlimit:10;" d="
					M400.249,310.879c0,0-7.168,7.765-17.522,11.349"/>
				
					<path style="fill:none;stroke:#272532;stroke-width:0.7087;stroke-linecap:round;stroke-linejoin:round;stroke-miterlimit:10;" d="
					M338.125,350.348c0,0,1.195,27.37,1.792,34.868"/>
				
					<line style="fill:none;stroke:#272532;stroke-width:0.7087;stroke-linecap:round;stroke-linejoin:round;stroke-miterlimit:10;" x1="339.917" y1="417.603" x2="339.917" y2="391.918"/>
				<path style="fill:#AABBE3;" d="M315.526,282.804c0,0,0.259,11.25,0.578,13.042c0.318,1.792,3.803,1.792,4.699,0.996
					c0.896-0.797-0.178-14.17-0.587-15.199C319.807,280.613,315.489,281.317,315.526,282.804z"/>
				<path style="fill:#97A9CC;" d="M317.617,290.868c0,0-3.883,0.398-4.679,1.692c-0.796,1.294,0.896,24.391,1.394,26.383
					s9.358,2.589,11.15,1.394c1.792-1.195-0.597-25.686-1.195-27.677C323.69,290.669,317.617,290.868,317.617,290.868z"/>
				<path style="fill:#AABBE3;" d="M332.019,303.777c0,0,6.372,5.443,24.292,8.097c17.92,2.655,32.92-3.85,34.247-8.097
					c1.327-4.248-16.593-11.416-31.327-11.15C344.497,292.892,327.772,299.264,332.019,303.777z"/>
				<path style="fill:#97A9CC;" d="M384.851,312.492c-0.942-0.38,1.593-18.671-3.053-32.21
					c-4.646-13.54-11.681-13.141-15.664-10.885c-3.982,2.257-2.92,9.026-4.248,9.425c-1.327,0.398-3.584,0.398-4.248-0.929
					c-0.664-1.328,2.389-12.478,10.221-14.203c7.832-1.726,13.672,3.318,17.92,12.743c4.248,9.425,3.982,31.725,3.982,34.447
					C389.762,313.6,386.709,313.242,384.851,312.492z"/>
				<path style="fill:#AABBE3;" d="M334.404,320.487c0,0-1.256,1.741,1.199,3.533c2.456,1.792,11.15,2.323,16.725,0.863
					c5.575-1.46,6.118-3.301,5.15-5.732c0,0-3.291,3.432-11.123,3.288C338.524,322.294,334.404,320.487,334.404,320.487z"/>
				<path style="fill:#97A9CC;" d="M347.616,316.387c0,0-11.15,0.199-13.075,3.717c-1.925,3.518,13.407,4.428,20.575,1.384
					C362.284,318.445,351.596,316.099,347.616,316.387z"/>
				<path style="fill:#97A9CC;" d="M362.815,305.005c0,0-10.653,1.095-8.064,3.086c2.589,1.991,11.349,0.697,12.245-1.543
					C367.893,304.308,362.815,305.005,362.815,305.005z"/>
			</g>
		</g>
		
			<path style="fill:none;stroke:#272532;stroke-width:0.7087;stroke-linecap:round;stroke-linejoin:round;stroke-miterlimit:10;" d="
			M219.149,71.616c0,0,4.492-2.147,6.739-2.496"/>
	</g>
</g>
</svg>
